<?xml version="1.0" encoding="UTF-8" standalone="no"?>
<!DOCTYPE svg PUBLIC "-//W3C//DTD SVG 1.1//EN" "http://www.w3.org/Graphics/SVG/1.1/DTD/svg11.dtd">
<svg width="100%" height="100%" viewBox="0 0 512 380" version="1.1" xmlns="http://www.w3.org/2000/svg" xmlns:xlink="http://www.w3.org/1999/xlink" xml:space="preserve" xmlns:serif="http://www.serif.com/" style="fill-rule:evenodd;clip-rule:evenodd;stroke-linejoin:round;stroke-miterlimit:2;">
    <g id="_1" transform="matrix(1,0,0,1,-47.8485,-98.5845)">
        <g transform="matrix(1.24603,0,0,1.24603,-15.386,-23.3541)">
            <path d="M149.67,393C149.661,393 149.652,393 149.643,393C97.259,393 54.153,349.894 54.153,297.51C54.153,272.2 64.216,247.9 82.11,230L146.81,165.3C183.896,128.307 244.824,128.307 281.91,165.3C318.909,202.387 318.909,263.323 281.91,300.41L217.22,365.1C199.317,383.007 174.991,393.054 149.67,393ZM214.36,167.31C196.976,167.274 180.277,174.182 168,186.49L103.3,251.19C91.019,263.475 84.112,280.154 84.112,297.525C84.112,333.478 113.697,363.063 149.65,363.063C167.029,363.063 183.713,356.151 196,343.86L260.7,279.16C272.985,266.879 279.895,250.201 279.895,232.83C279.895,196.892 250.323,167.32 214.385,167.32C214.377,167.32 214.368,167.32 214.36,167.32L214.36,167.31Z" style="fill:white;fill-rule:nonzero;"/>
        </g>
        <g transform="matrix(1.24603,0,0,1.24603,-15.386,-23.3541)">
            <path d="M295.9,360.71C287.757,360.715 279.647,359.673 271.77,357.61C265.457,355.703 261.109,349.846 261.109,343.251C261.109,335.022 267.88,328.251 276.109,328.251C277.206,328.251 278.299,328.371 279.37,328.61C301.846,334.47 325.819,327.957 342.24,311.53L406.94,246.84C419.225,234.555 426.135,217.874 426.135,200.5C426.135,164.549 396.551,134.965 360.6,134.965C343.226,134.965 326.545,141.875 314.26,154.16L249.57,218.86C233.193,235.319 226.689,259.268 232.49,281.75C232.704,282.766 232.812,283.802 232.812,284.841C232.812,293.07 226.041,299.841 217.812,299.841C211.263,299.841 205.437,295.553 203.49,289.3C195.032,256.535 204.515,221.63 228.39,197.65L293.08,132.95C311.103,114.027 336.123,103.305 362.255,103.305C414.661,103.305 457.785,146.429 457.785,198.835C457.785,224.962 447.066,249.978 428.15,268L363.46,332.69C345.594,350.673 321.249,360.77 295.9,360.71Z" style="fill:white;fill-rule:nonzero;"/>
        </g>
    </g>
</svg>
